<svg class="svg-icon" style="width: 1em;height: 1em;vertical-align: middle;fill: #ff00ff;overflow: hidden;" viewBox="0 0 1024 1024" version="1.1" xmlns="http://www.w3.org/2000/svg"><path d="M768 192h128v64a192 192 0 0 1-160.832 189.44A256.512 256.512 0 0 1 576 568V704h128a64 64 0 0 1 64 64v64h96a32 32 0 0 1 0 64h-704a32 32 0 0 1 0-64H256v-64a64 64 0 0 1 64-64h128V567.936a256.512 256.512 0 0 1-159.168-122.432A192 192 0 0 1 128 256V192h128V128h512v64z m0 64v64c0 19.392-2.176 38.336-6.272 56.448A138.368 138.368 0 0 0 832 256h-64zM256 256H192c0 51.648 28.288 96.704 70.272 120.448A256.832 256.832 0 0 1 256 320V256z m256 128l75.264 39.552-14.4-83.776 60.864-59.328-84.096-12.224L512 192l-37.632 76.224-84.096 12.224 60.8 59.328-14.336 83.776L512 384z" fill="#ff00ff" /></svg>
