<svg width="266" height="312" viewBox="0 0 266 312" fill="none" xmlns="http://www.w3.org/2000/svg">
<path fill-rule="evenodd" clip-rule="evenodd" d="M138.543 48.1774C135.195 50.3958 130.844 50.3958 127.496 48.1774L54.7841 0H53V166.106C53 171.629 48.5229 176.106 43 176.106H10.6006C1.54358 176.106 -2.84811 187.184 3.7486 193.389L126.167 308.554C130.017 312.176 136.021 312.176 139.871 308.554L262.29 193.389C268.887 187.184 264.493 176.106 255.436 176.106C244.817 176.106 235.013 176.106 223.043 176.106C217.52 176.106 213.038 171.629 213.038 166.106V0H211.254L138.543 48.1774ZM138.276 66.0807C134.874 68.3494 130.433 68.3183 127.063 66.0021L67.4078 25H67.6237L68.5616 177.044C68.5958 182.591 64.1087 187.106 58.5618 187.106H28.5159C24.0002 187.106 21.7981 192.618 25.0707 195.729L125.782 291.477C129.63 295.136 135.668 295.149 139.532 291.507L241.122 195.744C244.415 192.64 242.218 187.106 237.692 187.106H208.724C203.177 187.106 198.69 182.591 198.724 177.044L199.662 25H199.878L138.276 66.0807Z" fill="url(#paint0_linear_2_160)"/>
<path d="M123.063 113.911C123.063 112.307 124.363 111.007 125.968 111.007C127.572 111.007 128.873 112.307 128.873 113.911V131.336C128.873 132.94 127.572 134.241 125.968 134.241V134.27C121.334 135.777 117.308 138.632 114.354 142.373H107.349C110.856 136.312 116.408 131.583 123.063 129.129V113.911Z" fill="url(#paint1_linear_2_160)"/>
<path d="M159.694 142.373C156.187 136.312 150.635 131.583 143.98 129.129V113.911C143.98 112.307 142.68 111.007 141.075 111.007C139.471 111.007 138.17 112.307 138.17 113.911V131.336C138.17 132.94 139.471 134.241 141.075 134.241V134.27C145.71 135.776 149.735 138.632 152.689 142.373H159.694Z" fill="url(#paint2_linear_2_160)"/>
<path d="M130.591 108.102C130.591 106.498 131.892 105.198 133.496 105.198C135.101 105.198 136.402 106.498 136.402 108.102V130.175C136.402 131.779 135.101 133.079 133.496 133.079C131.892 133.079 130.591 131.779 130.591 130.175V108.102Z" fill="url(#paint3_linear_2_160)"/>
<path d="M96.0394 125.299C94.9048 124.165 94.9048 122.326 96.0394 121.192C97.1739 120.058 99.0134 120.058 100.148 121.192L115.761 136.8C116.895 137.934 116.895 139.773 115.761 140.907C114.626 142.041 112.787 142.041 111.652 140.907L96.0394 125.299Z" fill="url(#paint4_linear_2_160)"/>
<path fill-rule="evenodd" clip-rule="evenodd" d="M133.496 108.102C137.668 108.102 141.05 104.721 141.05 100.551C141.05 96.3807 137.668 93 133.496 93C129.325 93 125.943 96.3807 125.943 100.551C125.943 104.721 129.325 108.102 133.496 108.102ZM133.496 104.478C135.666 104.478 137.424 102.72 137.424 100.551C137.424 98.3825 135.666 96.6245 133.496 96.6245C131.327 96.6245 129.569 98.3825 129.569 100.551C129.569 102.72 131.327 104.478 133.496 104.478Z" fill="url(#paint5_linear_2_160)"/>
<path fill-rule="evenodd" clip-rule="evenodd" d="M92.823 125.528C96.9947 125.528 100.377 122.147 100.377 117.977C100.377 113.806 96.9947 110.426 92.823 110.426C88.6512 110.426 85.2693 113.806 85.2693 117.977C85.2693 122.147 88.6512 125.528 92.823 125.528ZM92.8229 121.903C94.9922 121.903 96.7507 120.145 96.7507 117.977C96.7507 115.808 94.9922 114.05 92.8229 114.05C90.6535 114.05 88.895 115.808 88.895 117.977C88.895 120.145 90.6535 121.903 92.8229 121.903Z" fill="url(#paint6_linear_2_160)"/>
<path d="M177.082 147.045C178.687 147.045 179.987 148.345 179.987 149.949C179.987 151.553 178.687 152.853 177.082 152.853H159.651C158.046 152.853 156.745 151.553 156.745 149.949H156.716C155.209 145.316 152.353 141.292 148.611 138.339V131.336C154.673 134.842 159.404 140.393 161.859 147.045H177.082Z" fill="url(#paint7_linear_2_160)"/>
<path d="M148.611 183.664C154.673 180.158 159.404 174.607 161.859 167.955H177.082C178.687 167.955 179.987 166.655 179.987 165.051C179.987 163.447 178.687 162.147 177.082 162.147H159.651C158.046 162.147 156.745 163.447 156.745 165.051H156.716C155.209 169.684 152.353 173.708 148.611 176.661V183.664Z" fill="url(#paint8_linear_2_160)"/>
<path d="M182.893 154.571C184.497 154.571 185.798 155.871 185.798 157.475C185.798 159.079 184.497 160.379 182.893 160.379H160.813C159.208 160.379 157.908 159.079 157.908 157.475C157.908 155.871 159.208 154.571 160.813 154.571H182.893Z" fill="url(#paint9_linear_2_160)"/>
<path d="M165.69 120.03C166.824 118.896 168.664 118.896 169.798 120.03C170.933 121.165 170.933 123.003 169.798 124.138L154.186 139.745C153.051 140.879 151.212 140.879 150.077 139.745C148.942 138.611 148.942 136.772 150.077 135.638L165.69 120.03Z" fill="url(#paint10_linear_2_160)"/>
<path fill-rule="evenodd" clip-rule="evenodd" d="M182.893 157.475C182.893 161.645 186.275 165.026 190.446 165.026C194.618 165.026 198 161.645 198 157.475C198 153.304 194.618 149.924 190.446 149.924C186.275 149.924 182.893 153.304 182.893 157.475ZM186.519 157.475C186.519 159.643 188.277 161.401 190.446 161.401C192.616 161.401 194.374 159.643 194.374 157.475C194.374 155.306 192.616 153.548 190.446 153.548C188.277 153.548 186.519 155.306 186.519 157.475Z" fill="url(#paint11_linear_2_160)"/>
<path fill-rule="evenodd" clip-rule="evenodd" d="M165.461 116.815C165.461 120.985 168.843 124.366 173.015 124.366C177.187 124.366 180.569 120.985 180.569 116.815C180.569 112.645 177.187 109.264 173.015 109.264C168.843 109.264 165.461 112.645 165.461 116.815ZM169.087 116.815C169.087 118.984 170.845 120.742 173.015 120.742C175.184 120.742 176.943 118.984 176.943 116.815C176.943 114.646 175.184 112.888 173.015 112.888C170.845 112.888 169.087 114.646 169.087 116.815Z" fill="url(#paint12_linear_2_160)"/>
<path d="M143.937 201.089C143.937 202.693 142.637 203.994 141.032 203.994C139.428 203.994 138.127 202.693 138.127 201.089V183.664C138.127 182.06 139.428 180.759 141.032 180.759V180.73C145.666 179.223 149.692 176.368 152.646 172.627H159.651C156.144 178.687 150.592 183.417 143.937 185.871V201.089Z" fill="url(#paint13_linear_2_160)"/>
<path d="M107.306 172.627C110.813 178.688 116.365 183.417 123.02 185.871V201.089C123.02 202.693 124.32 203.994 125.925 203.994C127.529 203.994 128.83 202.693 128.83 201.089V183.664C128.83 182.06 127.529 180.759 125.925 180.759V180.73C121.29 179.223 117.265 176.368 114.311 172.627H107.306Z" fill="url(#paint14_linear_2_160)"/>
<path d="M133.478 127.321L133.539 127.321H133.418L133.478 127.321Z" fill="url(#paint15_linear_2_160)"/>
<path d="M136.409 206.898C136.409 208.502 135.108 209.802 133.504 209.802C131.899 209.802 130.598 208.502 130.598 206.898V184.825C130.598 183.221 131.899 181.921 133.504 181.921C135.108 181.921 136.409 183.221 136.409 184.825V206.898Z" fill="url(#paint16_linear_2_160)"/>
<path d="M170.961 189.701C172.095 190.835 172.095 192.674 170.961 193.808C169.826 194.942 167.987 194.942 166.852 193.808L151.239 178.2C150.105 177.066 150.105 175.227 151.239 174.093C152.374 172.959 154.213 172.959 155.348 174.093L170.961 189.701Z" fill="url(#paint17_linear_2_160)"/>
<path fill-rule="evenodd" clip-rule="evenodd" d="M133.504 206.898C129.332 206.898 125.95 210.279 125.95 214.449C125.95 218.619 129.332 222 133.504 222C137.675 222 141.057 218.619 141.057 214.449C141.057 210.279 137.675 206.898 133.504 206.898ZM133.504 210.522C131.334 210.522 129.576 212.28 129.576 214.449C129.576 216.617 131.334 218.375 133.504 218.375C135.673 218.375 137.431 216.617 137.431 214.449C137.431 212.28 135.673 210.522 133.504 210.522Z" fill="url(#paint18_linear_2_160)"/>
<path fill-rule="evenodd" clip-rule="evenodd" d="M174.177 189.472C170.005 189.472 166.623 192.853 166.623 197.023C166.623 201.194 170.005 204.574 174.177 204.574C178.349 204.574 181.731 201.194 181.731 197.023C181.731 192.853 178.349 189.472 174.177 189.472ZM174.177 193.097C172.008 193.097 170.249 194.855 170.249 197.023C170.249 199.192 172.008 200.95 174.177 200.95C176.346 200.95 178.105 199.192 178.105 197.023C178.105 194.855 176.346 193.097 174.177 193.097Z" fill="url(#paint19_linear_2_160)"/>
<path d="M89.9178 167.955C88.3133 167.955 87.0126 166.655 87.0126 165.051C87.0126 163.447 88.3133 162.147 89.9178 162.147H107.349C108.954 162.147 110.255 163.447 110.255 165.051L110.284 165.051C111.791 169.684 114.647 173.708 118.389 176.661V183.664C112.327 180.158 107.596 174.607 105.141 167.955H89.9178Z" fill="url(#paint20_linear_2_160)"/>
<path d="M118.389 131.336C112.327 134.842 107.596 140.393 105.141 147.045H89.9178C88.3133 147.045 87.0126 148.345 87.0126 149.949C87.0126 151.553 88.3133 152.853 89.9178 152.853H107.349C108.954 152.853 110.255 151.553 110.255 149.949L110.284 149.949C111.791 145.316 114.647 141.292 118.389 138.339V131.336Z" fill="url(#paint21_linear_2_160)"/>
<path d="M84.1073 160.429C82.5028 160.429 81.2021 159.129 81.2021 157.525C81.2021 155.921 82.5028 154.621 84.1073 154.621H106.187C107.792 154.621 109.092 155.921 109.092 157.525C109.092 159.129 107.792 160.429 106.187 160.429H84.1073Z" fill="url(#paint22_linear_2_160)"/>
<path d="M101.31 194.97C100.176 196.104 98.3361 196.104 97.2016 194.97C96.067 193.835 96.067 191.997 97.2016 190.862L112.814 175.255C113.949 174.121 115.788 174.121 116.923 175.255C118.058 176.389 118.058 178.228 116.923 179.362L101.31 194.97Z" fill="url(#paint23_linear_2_160)"/>
<path fill-rule="evenodd" clip-rule="evenodd" d="M84.1073 157.525C84.1073 153.355 80.7254 149.974 76.5536 149.974C72.3819 149.974 69 153.355 69 157.525C69 161.696 72.3819 165.076 76.5536 165.076C80.7254 165.076 84.1073 161.696 84.1073 157.525ZM80.4816 157.525C80.4816 155.357 78.723 153.599 76.5537 153.599C74.3844 153.599 72.6258 155.357 72.6258 157.525C72.6258 159.694 74.3844 161.452 76.5537 161.452C78.723 161.452 80.4816 159.694 80.4816 157.525Z" fill="url(#paint24_linear_2_160)"/>
<path fill-rule="evenodd" clip-rule="evenodd" d="M101.539 198.185C101.539 194.015 98.1569 190.634 93.9851 190.634C89.8134 190.634 86.4315 194.015 86.4315 198.185C86.4315 202.355 89.8134 205.736 93.9851 205.736C98.1569 205.736 101.539 202.355 101.539 198.185ZM97.9131 198.185C97.9131 196.016 96.1545 194.258 93.9852 194.258C91.8159 194.258 90.0573 196.016 90.0573 198.185C90.0573 200.354 91.8159 202.112 93.9852 202.112C96.1545 202.112 97.9131 200.354 97.9131 198.185Z" fill="url(#paint25_linear_2_160)"/>
<defs>
<linearGradient id="paint0_linear_2_160" x1="32" y1="-14" x2="196" y2="309.5" gradientUnits="userSpaceOnUse">
<stop stop-color="#E1E1E1"/>
<stop offset="1" stop-color="#5300B9"/>
</linearGradient>
<linearGradient id="paint1_linear_2_160" x1="32" y1="-14" x2="196" y2="309.5" gradientUnits="userSpaceOnUse">
<stop stop-color="#E1E1E1"/>
<stop offset="1" stop-color="#5300B9"/>
</linearGradient>
<linearGradient id="paint2_linear_2_160" x1="32" y1="-14" x2="196" y2="309.5" gradientUnits="userSpaceOnUse">
<stop stop-color="#E1E1E1"/>
<stop offset="1" stop-color="#5300B9"/>
</linearGradient>
<linearGradient id="paint3_linear_2_160" x1="32" y1="-14" x2="196" y2="309.5" gradientUnits="userSpaceOnUse">
<stop stop-color="#E1E1E1"/>
<stop offset="1" stop-color="#5300B9"/>
</linearGradient>
<linearGradient id="paint4_linear_2_160" x1="32" y1="-14" x2="196" y2="309.5" gradientUnits="userSpaceOnUse">
<stop stop-color="#E1E1E1"/>
<stop offset="1" stop-color="#5300B9"/>
</linearGradient>
<linearGradient id="paint5_linear_2_160" x1="32" y1="-14" x2="196" y2="309.5" gradientUnits="userSpaceOnUse">
<stop stop-color="#E1E1E1"/>
<stop offset="1" stop-color="#5300B9"/>
</linearGradient>
<linearGradient id="paint6_linear_2_160" x1="32" y1="-14" x2="196" y2="309.5" gradientUnits="userSpaceOnUse">
<stop stop-color="#E1E1E1"/>
<stop offset="1" stop-color="#5300B9"/>
</linearGradient>
<linearGradient id="paint7_linear_2_160" x1="32" y1="-14" x2="196" y2="309.5" gradientUnits="userSpaceOnUse">
<stop stop-color="#E1E1E1"/>
<stop offset="1" stop-color="#5300B9"/>
</linearGradient>
<linearGradient id="paint8_linear_2_160" x1="32" y1="-14" x2="196" y2="309.5" gradientUnits="userSpaceOnUse">
<stop stop-color="#E1E1E1"/>
<stop offset="1" stop-color="#5300B9"/>
</linearGradient>
<linearGradient id="paint9_linear_2_160" x1="32" y1="-14" x2="196" y2="309.5" gradientUnits="userSpaceOnUse">
<stop stop-color="#E1E1E1"/>
<stop offset="1" stop-color="#5300B9"/>
</linearGradient>
<linearGradient id="paint10_linear_2_160" x1="32" y1="-14" x2="196" y2="309.5" gradientUnits="userSpaceOnUse">
<stop stop-color="#E1E1E1"/>
<stop offset="1" stop-color="#5300B9"/>
</linearGradient>
<linearGradient id="paint11_linear_2_160" x1="32" y1="-14" x2="196" y2="309.5" gradientUnits="userSpaceOnUse">
<stop stop-color="#E1E1E1"/>
<stop offset="1" stop-color="#5300B9"/>
</linearGradient>
<linearGradient id="paint12_linear_2_160" x1="32" y1="-14" x2="196" y2="309.5" gradientUnits="userSpaceOnUse">
<stop stop-color="#E1E1E1"/>
<stop offset="1" stop-color="#5300B9"/>
</linearGradient>
<linearGradient id="paint13_linear_2_160" x1="32" y1="-14" x2="196" y2="309.5" gradientUnits="userSpaceOnUse">
<stop stop-color="#E1E1E1"/>
<stop offset="1" stop-color="#5300B9"/>
</linearGradient>
<linearGradient id="paint14_linear_2_160" x1="32" y1="-14" x2="196" y2="309.5" gradientUnits="userSpaceOnUse">
<stop stop-color="#E1E1E1"/>
<stop offset="1" stop-color="#5300B9"/>
</linearGradient>
<linearGradient id="paint15_linear_2_160" x1="32" y1="-14" x2="196" y2="309.5" gradientUnits="userSpaceOnUse">
<stop stop-color="#E1E1E1"/>
<stop offset="1" stop-color="#5300B9"/>
</linearGradient>
<linearGradient id="paint16_linear_2_160" x1="32" y1="-14" x2="196" y2="309.5" gradientUnits="userSpaceOnUse">
<stop stop-color="#E1E1E1"/>
<stop offset="1" stop-color="#5300B9"/>
</linearGradient>
<linearGradient id="paint17_linear_2_160" x1="32" y1="-14" x2="196" y2="309.5" gradientUnits="userSpaceOnUse">
<stop stop-color="#E1E1E1"/>
<stop offset="1" stop-color="#5300B9"/>
</linearGradient>
<linearGradient id="paint18_linear_2_160" x1="32" y1="-14" x2="196" y2="309.5" gradientUnits="userSpaceOnUse">
<stop stop-color="#E1E1E1"/>
<stop offset="1" stop-color="#5300B9"/>
</linearGradient>
<linearGradient id="paint19_linear_2_160" x1="32" y1="-14" x2="196" y2="309.5" gradientUnits="userSpaceOnUse">
<stop stop-color="#E1E1E1"/>
<stop offset="1" stop-color="#5300B9"/>
</linearGradient>
<linearGradient id="paint20_linear_2_160" x1="32" y1="-14" x2="196" y2="309.5" gradientUnits="userSpaceOnUse">
<stop stop-color="#E1E1E1"/>
<stop offset="1" stop-color="#5300B9"/>
</linearGradient>
<linearGradient id="paint21_linear_2_160" x1="32" y1="-14" x2="196" y2="309.5" gradientUnits="userSpaceOnUse">
<stop stop-color="#E1E1E1"/>
<stop offset="1" stop-color="#5300B9"/>
</linearGradient>
<linearGradient id="paint22_linear_2_160" x1="32" y1="-14" x2="196" y2="309.5" gradientUnits="userSpaceOnUse">
<stop stop-color="#E1E1E1"/>
<stop offset="1" stop-color="#5300B9"/>
</linearGradient>
<linearGradient id="paint23_linear_2_160" x1="32" y1="-14" x2="196" y2="309.5" gradientUnits="userSpaceOnUse">
<stop stop-color="#E1E1E1"/>
<stop offset="1" stop-color="#5300B9"/>
</linearGradient>
<linearGradient id="paint24_linear_2_160" x1="32" y1="-14" x2="196" y2="309.5" gradientUnits="userSpaceOnUse">
<stop stop-color="#E1E1E1"/>
<stop offset="1" stop-color="#5300B9"/>
</linearGradient>
<linearGradient id="paint25_linear_2_160" x1="32" y1="-14" x2="196" y2="309.5" gradientUnits="userSpaceOnUse">
<stop stop-color="#E1E1E1"/>
<stop offset="1" stop-color="#5300B9"/>
</linearGradient>
</defs>
</svg>
